<?xml version="1.0" encoding="UTF-8" standalone="no"?>
<!-- Created with Inkscape (http://www.inkscape.org/) -->

<svg
   width="400.00006"
   height="390.49493"
   viewBox="0 0 105.83335 103.31845"
   version="1.1"
   id="svg1"
   xmlns="http://www.w3.org/2000/svg"
   xmlns:svg="http://www.w3.org/2000/svg">
  <defs
     id="defs1" />
  <g
     id="layer1"
     transform="translate(-26.521189,-16.796646)">
    <rect
       style="fill:#414141;fill-opacity:1;stroke:none;stroke-width:0.564999;stroke-linecap:round;stroke-dasharray:none;stroke-opacity:1"
       id="rect18"
       width="105.83334"
       height="103.31845"
       x="26.521189"
       y="16.796646" />
    <ellipse
       style="fill:none;fill-opacity:1;stroke:#ffffff;stroke-width:0.396875;stroke-linecap:round;stroke-dasharray:none;stroke-opacity:1"
       id="path66"
       cx="83.659569"
       cy="31.395208"
       rx="11.181739"
       ry="6.6064324" />
    <ellipse
       style="fill:none;fill-opacity:0.412317;stroke:#ffffff;stroke-width:0.396875;stroke-linecap:round;stroke-dasharray:none;stroke-opacity:1"
       id="path61"
       cx="98.639381"
       cy="95.703781"
       rx="26.773264"
       ry="8.3105288" />
    <g
       id="g3"
       transform="matrix(0.70414954,0,0,0.70414954,-69.335779,-20.240843)"
       style="fill:#ffffff;stroke-width:1.42015">
      <ellipse
         style="fill:none;fill-opacity:0.412317;stroke:#ffffff;stroke-width:0.563623;stroke-linecap:round;stroke-dasharray:none;stroke-opacity:1"
         id="ellipse65"
         cx="160.82478"
         cy="164.65909"
         rx="15.006762"
         ry="8.2771683" />
      <text
         xml:space="preserve"
         style="font-style:normal;font-variant:normal;font-weight:normal;font-stretch:normal;font-size:5.74523px;line-height:1.25;font-family:hack;-inkscape-font-specification:'hack, ';font-variant-ligatures:normal;font-variant-caps:normal;font-variant-numeric:normal;font-variant-east-asian:normal;fill:#ffffff;stroke-width:0.375749"
         x="149.07005"
         y="166.21666"
         id="text9"><tspan
           id="tspan9"
           style="font-style:normal;font-variant:normal;font-weight:normal;font-stretch:normal;font-size:5.74523px;font-family:hack;-inkscape-font-specification:'hack, ';font-variant-ligatures:normal;font-variant-caps:normal;font-variant-numeric:normal;font-variant-east-asian:normal;fill:#ffffff;stroke-width:0.375749"
           x="149.07005"
           y="166.21666">fibSeq(1)</tspan></text>
    </g>
    <g
       id="g1"
       transform="matrix(0.70414954,0,0,0.70414954,-69.335779,-6.1415667)"
       style="fill:#ffffff;stroke-width:1.42015">
      <ellipse
         style="fill:none;fill-opacity:0.412317;stroke:#ffffff;stroke-width:0.563623;stroke-linecap:round;stroke-dasharray:none;stroke-opacity:1"
         id="ellipse64"
         cx="160.82478"
         cy="99.044991"
         rx="15.006762"
         ry="8.2771683" />
      <text
         xml:space="preserve"
         style="font-style:normal;font-variant:normal;font-weight:normal;font-stretch:normal;font-size:5.74523px;line-height:1.25;font-family:hack;-inkscape-font-specification:'hack, ';font-variant-ligatures:normal;font-variant-caps:normal;font-variant-numeric:normal;font-variant-east-asian:normal;fill:#ffffff;stroke-width:0.375749"
         x="149.07005"
         y="100.69984"
         id="text28"><tspan
           id="tspan28"
           style="font-style:normal;font-variant:normal;font-weight:normal;font-stretch:normal;font-size:5.74523px;font-family:hack;-inkscape-font-specification:'hack, ';font-variant-ligatures:normal;font-variant-caps:normal;font-variant-numeric:normal;font-variant-east-asian:normal;fill:#ffffff;stroke-width:0.375749"
           x="149.07005"
           y="100.69984">fibSeq(2)</tspan></text>
    </g>
    <g
       id="g2"
       transform="matrix(0.70414954,0,0,0.70414954,-69.335779,6.4280172)"
       style="fill:#ffffff;stroke-width:1.42015">
      <ellipse
         style="fill:none;fill-opacity:0.412317;stroke:#ffffff;stroke-width:0.563623;stroke-linecap:round;stroke-dasharray:none;stroke-opacity:1"
         id="ellipse63"
         cx="160.82478"
         cy="35.752422"
         rx="15.006762"
         ry="8.2771683" />
      <text
         xml:space="preserve"
         style="font-style:normal;font-variant:normal;font-weight:normal;font-stretch:normal;font-size:5.74523px;line-height:1.25;font-family:hack;-inkscape-font-specification:'hack, ';font-variant-ligatures:normal;font-variant-caps:normal;font-variant-numeric:normal;font-variant-east-asian:normal;fill:#ffffff;stroke-width:0.375749"
         x="149.07005"
         y="38.052509"
         id="text39"><tspan
           id="tspan39"
           style="font-style:normal;font-variant:normal;font-weight:normal;font-stretch:normal;font-size:5.74523px;font-family:hack;-inkscape-font-specification:'hack, ';font-variant-ligatures:normal;font-variant-caps:normal;font-variant-numeric:normal;font-variant-east-asian:normal;fill:#ffffff;stroke-width:0.375749"
           x="149.07005"
           y="38.052509">fibSeq(3)</tspan></text>
    </g>
    <text
       xml:space="preserve"
       style="font-style:normal;font-variant:normal;font-weight:normal;font-stretch:normal;font-size:4.0455px;line-height:1.25;font-family:hack;-inkscape-font-specification:'hack, ';font-variant-ligatures:normal;font-variant-caps:normal;font-variant-numeric:normal;font-variant-east-asian:normal;fill:#ffffff;stroke-width:0.264583"
       x="74.452469"
       y="32.521992"
       id="text43"><tspan
         style="font-style:normal;font-variant:normal;font-weight:normal;font-stretch:normal;font-size:4.0455px;font-family:hack;-inkscape-font-specification:'hack, ';font-variant-ligatures:normal;font-variant-caps:normal;font-variant-numeric:normal;font-variant-east-asian:normal;fill:#ffffff;stroke-width:0.264583"
         x="74.452469"
         y="32.521992"
         id="tspan43">[0, 1, 1, 2]</tspan></text>
    <ellipse
       style="fill:none;fill-opacity:1;stroke:#ffffff;stroke-width:0.396875;stroke-linecap:round;stroke-dasharray:none;stroke-opacity:1"
       id="path60"
       cx="111.04307"
       cy="95.736595"
       rx="6.1042929"
       ry="4.7466216" />
    <text
       xml:space="preserve"
       style="font-style:normal;font-variant:normal;font-weight:normal;font-stretch:normal;font-size:4.0455px;line-height:1.25;font-family:hack;-inkscape-font-specification:'hack, ';font-variant-ligatures:normal;font-variant-caps:normal;font-variant-numeric:normal;font-variant-east-asian:normal;fill:#ffffff;stroke-width:0.264583"
       x="76.186852"
       y="97.057396"
       id="text11"><tspan
         id="tspan11"
         style="font-style:normal;font-variant:normal;font-weight:normal;font-stretch:normal;font-size:4.0455px;font-family:hack;-inkscape-font-specification:'hack, ';font-variant-ligatures:normal;font-variant-caps:normal;font-variant-numeric:normal;font-variant-east-asian:normal;fill:#ffffff;stroke-width:0.264583"
         x="76.186852"
         y="97.057396">addNextTerm(   [0, 1]   )</tspan></text>
    <ellipse
       style="fill:none;fill-opacity:0.412317;stroke:#ffffff;stroke-width:0.396875;stroke-linecap:round;stroke-dasharray:none;stroke-opacity:1"
       id="ellipse61"
       cx="99.186989"
       cy="63.839287"
       rx="26.773264"
       ry="8.3105288" />
    <ellipse
       style="fill:none;fill-opacity:1;stroke:#ffffff;stroke-width:0.396875;stroke-linecap:round;stroke-dasharray:none;stroke-opacity:1"
       id="ellipse62"
       cx="113.74137"
       cy="63.744164"
       rx="8.3977671"
       ry="4.7466216" />
    <text
       xml:space="preserve"
       style="font-style:normal;font-variant:normal;font-weight:normal;font-stretch:normal;font-size:4.0455px;line-height:1.25;font-family:hack;-inkscape-font-specification:'hack, ';font-variant-ligatures:normal;font-variant-caps:normal;font-variant-numeric:normal;font-variant-east-asian:normal;fill:#ffffff;stroke-width:0.264583"
       x="76.734467"
       y="64.954536"
       id="text62"><tspan
         id="tspan62"
         style="font-style:normal;font-variant:normal;font-weight:normal;font-stretch:normal;font-size:4.0455px;font-family:Sans;-inkscape-font-specification:'Sans, ';font-variant-ligatures:normal;font-variant-caps:normal;font-variant-numeric:normal;font-variant-east-asian:normal;fill:#ffffff;stroke-width:0.264583"
         x="76.734467"
         y="64.954536">addNextTerm(   [0, 1, 1]   )</tspan></text>
    <g
       id="path10"
       transform="matrix(0.70414954,0,0,0.70414954,7.8463059,4.9692954)"
       style="stroke-width:1.42015">
      <path
         style="color:#000000;fill:#d7d7d7;stroke-width:1.42015;-inkscape-stroke:none"
         d="m 66.220703,128.57422 v 0.56445 c 9.438802,0 19.103036,7.95055 31.369141,15.96875 9.004026,5.88583 21.257146,8.52501 31.371096,7.68555 5.05697,-0.41973 9.58322,-1.70744 12.90234,-3.92774 3.31913,-2.22029 5.42628,-5.39768 5.57227,-9.5 l -0.56446,-0.0215 c -0.13954,3.92121 -2.11683,6.90654 -5.32226,9.05078 -3.20543,2.14424 -7.64545,3.42183 -12.63477,3.83594 -9.97864,0.82823 -22.14378,-1.79628 -31.015623,-7.5957 C 85.662633,136.63635 75.973748,128.5742 66.220703,128.5742 Z"
         id="path23" />
      <g
         id="g22"
         style="stroke-width:1.42015">
        <path
           d="m 145.5437,140.08876 1.73572,-4.29149 1.42628,4.40401 c -0.8928,-0.82327 -2.20898,-0.87011 -3.162,-0.11252 z"
           style="color:#000000;fill:#d7d7d7;fill-rule:evenodd;stroke-width:1.42015;-inkscape-stroke:none"
           id="path22" />
      </g>
    </g>
    <g
       id="path11"
       transform="matrix(0.70414954,0,0,0.70414954,7.8463059,4.9692954)"
       style="stroke-width:1.42015">
      <path
         style="color:#000000;fill:#d7d7d7;stroke-width:1.42015;-inkscape-stroke:none"
         d="m 62.574219,47.296875 -0.476563,0.304687 C 69.622261,59.412859 75.87989,77.875519 91.599609,83.53125 L 91.791016,83 C 76.396242,77.46118 70.164949,59.211968 62.574219,47.296875 Z"
         id="path25" />
      <g
         id="g24"
         style="stroke-width:1.42015">
        <path
           d="m 61.426335,48.965971 -1.003271,-4.519183 3.671763,2.819171 c -1.202201,-0.171995 -2.312961,0.535636 -2.668492,1.700012 z"
           style="color:#000000;fill:#d7d7d7;fill-rule:evenodd;stroke-width:1.42015;-inkscape-stroke:none"
           id="path24" />
      </g>
    </g>
    <g
       id="path13"
       transform="matrix(0.70414954,0,0,0.70414954,7.8463059,4.9692954)"
       style="stroke-width:1.42015">
      <path
         style="color:#000000;fill:#d7d7d7;stroke-width:1.42015;-inkscape-stroke:none"
         d="m 50.931641,46.101562 v 25.302735 h 0.564453 V 46.101562 Z"
         id="path27" />
      <g
         id="g26"
         style="stroke-width:1.42015">
        <path
           d="m 52.796422,70.612837 -1.582,4.3505 -1.582,-4.3505 c 0.921515,0.791 2.23853,0.791 3.164,0 z"
           style="color:#000000;fill:#d7d7d7;fill-rule:evenodd;stroke-width:1.42015;-inkscape-stroke:none"
           id="path26" />
      </g>
    </g>
    <g
       id="path14"
       transform="matrix(0.70414954,0,0,0.70414954,7.8463059,4.9692954)"
       style="stroke-width:1.42015">
      <path
         style="color:#000000;fill:#d7d7d7;stroke-width:1.42015;-inkscape-stroke:none"
         d="M 50.931641,91.542969 V 116.8418 h 0.564453 V 91.542969 Z"
         id="path29" />
      <g
         id="g28"
         style="stroke-width:1.42015">
        <path
           d="m 52.796422,116.05074 -1.582,4.3505 -1.582,-4.3505 c 0.921515,0.791 2.23853,0.791 3.164,0 z"
           style="color:#000000;fill:#d7d7d7;fill-rule:evenodd;stroke-width:1.42015;-inkscape-stroke:none"
           id="path28" />
      </g>
    </g>
    <g
       id="path15"
       transform="matrix(0.70414954,0,0,0.70414954,7.8463059,4.9692954)"
       style="stroke-width:1.42015">
      <path
         style="color:#000000;fill:#d7d7d7;stroke-width:1.42015;-inkscape-stroke:none"
         d="m 88.226562,37.246094 -22.009765,0.294922 0.0078,0.566406 22.009766,-0.296875 z"
         id="path31" />
      <g
         id="g30"
         style="stroke-width:1.42015">
        <path
           d="m 87.419127,35.957586 4.371324,1.523515 -4.328893,1.6402 c 0.77857,-0.932039 0.760909,-2.248936 -0.04243,-3.163715 z"
           style="color:#000000;fill:#d7d7d7;fill-rule:evenodd;stroke-width:1.42015;-inkscape-stroke:none"
           id="path30" />
      </g>
    </g>
    <g
       id="path16"
       transform="matrix(0.70414954,0,0,0.70414954,7.8463059,4.9692954)"
       style="stroke-width:1.42015">
      <path
         style="color:#000000;fill:#d7d7d7;stroke-width:1.42015;-inkscape-stroke:none"
         d="m 63.005859,92.630859 -0.480468,0.296875 c 7.74666,12.470396 11.760806,27.967026 28.267578,36.181636 l 0.25,-0.50585 C 74.757365,120.49897 70.816511,105.20427 63.005859,92.630859 Z"
         id="path33" />
      <g
         id="g32"
         style="stroke-width:1.42015">
        <path
           d="m 61.83989,94.286146 -0.951844,-4.530295 3.639485,2.86072 c -1.200169,-0.185647 -2.3189,0.509314 -2.687641,1.669575 z"
           style="color:#000000;fill:#d7d7d7;fill-rule:evenodd;stroke-width:1.42015;-inkscape-stroke:none"
           id="path32" />
      </g>
    </g>
    <g
       id="path17"
       transform="matrix(0.70414954,0,0,0.70414954,7.8463059,4.9692954)"
       style="stroke-width:1.42015">
      <path
         style="color:#000000;fill:#d7d7d7;stroke-width:1.42015;-inkscape-stroke:none"
         d="m 66.220703,82.982422 v 0.566406 c 9.438802,0 19.103036,7.948591 31.369141,15.966797 9.012136,5.891125 22.460356,8.654585 33.701176,7.904295 5.6204,-0.37514 10.6905,-1.62892 14.38476,-3.84375 3.69426,-2.21482 6.01385,-5.428242 6.02149,-9.624998 l -0.56446,-0.002 c -0.007,3.991098 -2.16924,6.996968 -5.74804,9.142578 -3.5788,2.1456 -8.57165,3.39261 -14.13086,3.76367 -11.11844,0.74212 -24.49174,-2.01838 -33.355473,-7.812498 -12.235804,-7.998352 -21.924689,-16.0605 -31.677734,-16.0605 z"
         id="path35" />
      <g
         id="g34"
         style="stroke-width:1.42015">
        <path
           d="m 149.83207,94.737875 1.58992,-4.347614 1.57408,4.353372 c -0.92008,-0.792676 -2.23709,-0.795073 -3.164,-0.0058 z"
           style="color:#000000;fill:#d7d7d7;fill-rule:evenodd;stroke-width:1.42015;-inkscape-stroke:none"
           id="path34" />
      </g>
    </g>
    <g
       id="path19"
       transform="matrix(0.70414954,0,0,0.70414954,7.8463059,4.9692954)"
       style="stroke-width:1.42015">
      <path
         style="color:#000000;fill:#d7d7d7;stroke-width:1.42015;-inkscape-stroke:none"
         d="m 62.574219,47.296875 -0.476563,0.304687 C 69.622261,59.412859 75.87989,77.875519 91.599609,83.53125 L 91.791016,83 C 76.396242,77.46118 70.164949,59.211968 62.574219,47.296875 Z"
         id="path37" />
      <g
         id="g36"
         style="stroke-width:1.42015">
        <path
           d="m 61.426335,48.965971 -1.003271,-4.519183 3.671763,2.819171 c -1.202201,-0.171995 -2.312961,0.535636 -2.668492,1.700012 z"
           style="color:#000000;fill:#d7d7d7;fill-rule:evenodd;stroke-width:1.42015;-inkscape-stroke:none"
           id="path36" />
      </g>
    </g>
  </g>
</svg>
